<svg width="40" height="40" viewBox="0 0 40 40" fill="none" xmlns="http://www.w3.org/2000/svg">
<g clip-path="url(#clip0)">
<path d="M35.1496 -0.0388654C34.0683 -0.0585054 31.5564 0.392214 27.3626 3.83857C25.0769 3.13717 22.6449 2.79105 20.2088 2.79105C17.5283 2.79105 14.8196 3.20897 12.2935 4.05981C6.27234 -0.983665 3.61467 0.0498945 3.61467 0.0498945C1.87963 5.37721 2.9518 9.32141 3.27768 10.301C1.2384 13.0033 -0.00653076 16.454 -0.00653076 20.6833C-0.00653076 23.8762 0.28944 26.74 1.01254 29.2294C1.05264 29.4216 1.03964 29.3787 1.10721 29.5432C1.26652 30.0586 1.44364 30.5588 1.64273 31.0419C1.71094 31.2158 1.77304 31.3444 1.77304 31.3444C3.80574 35.9967 7.81285 39.002 14.9425 39.9456L25.7256 39.9606C33.329 39.0348 36.9775 36.0206 38.6588 31.3369L38.7657 31.0319C38.925 30.5588 39.0639 30.0665 39.4438 28.4094C39.8236 26.7524 39.9935 23.8826 39.9935 20.682C39.9935 16.0918 38.5894 12.419 36.3092 9.62469C36.7077 8.04549 37.24 4.53837 35.7778 0.0486146C35.7778 0.0486146 35.5728 -0.0311854 35.1496 -0.0389054L35.1496 -0.0388654ZM26.652 16.8058C28.4077 16.8012 29.9116 17.1713 31.0408 18.6258V18.627C32.4537 20.4487 33.2805 22.648 33.2805 25.0182C33.2805 36.0845 27.4838 36.3855 20.334 36.3855C13.183 36.3855 7.38755 34.852 7.38755 25.0182C7.38755 22.6637 8.20229 20.4775 9.59773 18.6633C11.9255 15.6397 15.8646 17.2408 20.334 17.2408C22.6283 17.2404 24.783 16.8108 26.652 16.8058L26.652 16.8058ZM13.3339 20.0646C11.8462 20.0646 10.6401 22.5342 10.6401 25.582C10.6401 28.6302 11.8461 31.1007 13.3339 31.1007C14.8216 31.1007 16.0277 28.6302 16.0277 25.582C16.0277 22.5346 14.8217 20.0668 13.3339 20.0646ZM27.7871 20.0646C26.2994 20.0646 25.0933 22.5342 25.0933 25.582C25.0933 28.6302 26.2993 31.1007 27.7871 31.1007C29.2748 31.1007 30.4808 28.6302 30.4808 25.582C30.4808 22.5346 29.2748 20.0668 27.7871 20.0646Z" fill="black"/>
</g>
<defs>
<clipPath id="clip0">
<rect width="40" height="40" fill="white"/>
</clipPath>
</defs>
</svg>
