<svg width="40" height="40" viewBox="0 0 40 40" fill="none" xmlns="http://www.w3.org/2000/svg">
<path d="M26.695 3.33334H13.245C10.6169 3.33643 8.09737 4.38191 6.2392 6.2404C4.38102 8.09889 3.33596 10.6186 3.33331 13.2467L3.33331 26.6967C3.3364 29.3248 4.38188 31.8443 6.24037 33.7025C8.09886 35.5606 10.6186 36.6057 13.2466 36.6083H26.6966C29.3247 36.6053 31.8443 35.5598 33.7024 33.7013C35.5606 31.8428 36.6057 29.3231 36.6083 26.695V13.245C36.6052 10.6169 35.5597 8.0974 33.7013 6.23923C31.8428 4.38105 29.3231 3.33599 26.695 3.33334V3.33334ZM33.2616 26.695C33.2616 27.5574 33.0918 28.4113 32.7618 29.208C32.4318 30.0047 31.9481 30.7286 31.3383 31.3383C30.7285 31.9481 30.0046 32.4318 29.2079 32.7618C28.4112 33.0918 27.5573 33.2617 26.695 33.2617H13.245C11.5037 33.2612 9.83385 32.5692 8.60272 31.3378C7.37159 30.1063 6.67998 28.4363 6.67998 26.695V13.245C6.68042 11.5037 7.37246 9.83388 8.6039 8.60275C9.83534 7.37162 11.5053 6.68001 13.2466 6.68001H26.6966C28.4379 6.68045 30.1078 7.37249 31.3389 8.60393C32.57 9.83537 33.2616 11.5054 33.2616 13.2467V26.6967V26.695Z" fill="black"/>
<path d="M19.97 11.365C17.689 11.3685 15.5025 12.2763 13.8898 13.8894C12.2771 15.5024 11.3697 17.6891 11.3666 19.97C11.3693 22.2516 12.2767 24.4389 13.8898 26.0523C15.5029 27.6658 17.6901 28.5736 19.9716 28.5767C22.2535 28.574 24.4411 27.6664 26.0546 26.0529C27.668 24.4394 28.5757 22.2518 28.5783 19.97C28.5748 17.6885 27.6665 15.5015 26.0528 13.8887C24.439 12.2759 22.2515 11.3689 19.97 11.3667V11.365ZM19.97 25.23C18.5754 25.23 17.2379 24.676 16.2518 23.6899C15.2656 22.7038 14.7116 21.3663 14.7116 19.9717C14.7116 18.5771 15.2656 17.2396 16.2518 16.2535C17.2379 15.2674 18.5754 14.7134 19.97 14.7134C21.3646 14.7134 22.702 15.2674 23.6882 16.2535C24.6743 17.2396 25.2283 18.5771 25.2283 19.9717C25.2283 21.3663 24.6743 22.7038 23.6882 23.6899C22.702 24.676 21.3646 25.23 19.97 25.23V25.23Z" fill="black"/>
<path d="M28.5933 13.4917C29.732 13.4917 30.655 12.5686 30.655 11.43C30.655 10.2914 29.732 9.36835 28.5933 9.36835C27.4547 9.36835 26.5317 10.2914 26.5317 11.43C26.5317 12.5686 27.4547 13.4917 28.5933 13.4917Z" fill="black"/>
</svg>
