<svg width="40" height="40" viewBox="0 0 40 40" fill="none" xmlns="http://www.w3.org/2000/svg">
<path d="M28.3334 21.8833V28.045H24.7617V22.295C24.7617 20.8517 24.245 19.8667 22.9517 19.8667C21.965 19.8667 21.3767 20.53 21.1184 21.1733C21.025 21.4033 21 21.7233 21 22.0433V28.045H17.4267C17.4267 28.045 17.475 18.3083 17.4267 17.3H21V18.8217L20.9767 18.8567H21V18.8233C21.475 18.09 22.3217 17.0467 24.22 17.0467C26.57 17.0467 28.3334 18.5833 28.3334 21.8833V21.8833ZM13.6884 12.1183C12.4667 12.1183 11.6667 12.9217 11.6667 13.975C11.6667 15.0083 12.4434 15.8333 13.6417 15.8333H13.665C14.9117 15.8333 15.6867 15.0067 15.6867 13.975C15.6634 12.9217 14.9117 12.1183 13.6884 12.1183ZM11.8784 28.045H15.4517V17.3H11.8784V28.045V28.045Z" fill="black"/>
<path d="M20 33.3333C23.5362 33.3333 26.9276 31.9286 29.4281 29.4281C31.9286 26.9276 33.3333 23.5362 33.3333 20C33.3333 16.4638 31.9286 13.0724 29.4281 10.5719C26.9276 8.07144 23.5362 6.66668 20 6.66668C16.4638 6.66668 13.0724 8.07144 10.5719 10.5719C8.0714 13.0724 6.66665 16.4638 6.66665 20C6.66665 23.5362 8.0714 26.9276 10.5719 29.4281C13.0724 31.9286 16.4638 33.3333 20 33.3333V33.3333ZM20 36.6667C10.795 36.6667 3.33331 29.205 3.33331 20C3.33331 10.795 10.795 3.33334 20 3.33334C29.205 3.33334 36.6666 10.795 36.6666 20C36.6666 29.205 29.205 36.6667 20 36.6667Z" fill="black"/>
</svg>
