<svg width="40" height="40" viewBox="0 0 40 40" fill="none" xmlns="http://www.w3.org/2000/svg">
<path d="M36.8737 20.1005C36.8739 20.0669 36.875 20.0336 36.875 20C36.8753 17.4962 36.3177 15.0238 35.2425 12.7626C34.1674 10.5014 32.6018 8.50829 30.6597 6.92811C30.6286 6.89936 30.5984 6.86998 30.565 6.8428C30.5226 6.80862 30.4788 6.7763 30.4336 6.74592C27.9577 4.79274 24.9835 3.57356 21.849 3.22704C18.7146 2.88052 15.5458 3.42057 12.7031 4.78576C12.6193 4.82007 12.5381 4.86038 12.4602 4.90639C10.1633 6.058 8.15857 7.71722 6.59792 9.75836C5.03726 11.7995 3.96158 14.169 3.45234 16.6875C3.45109 16.6936 3.44922 16.6992 3.44797 16.7055C3.44687 16.7112 3.44656 16.7169 3.44547 16.7226C2.82977 19.8356 3.10474 23.0592 4.23878 26.023C5.37282 28.9867 7.31992 31.5705 9.85641 33.4773C9.94033 33.5521 10.0308 33.6192 10.1267 33.6778C10.1291 33.6794 10.1314 33.6805 10.1337 33.6817C12.3328 35.271 14.8831 36.3057 17.5678 36.698C20.2525 37.0903 22.9922 36.8285 25.5541 35.9348C25.6234 35.9148 25.6915 35.8908 25.7581 35.863C28.9899 34.6851 31.7854 32.5494 33.7715 29.741C35.7575 26.9326 36.8396 23.5852 36.8731 20.1456C36.8733 20.1305 36.8739 20.1155 36.8737 20.1006V20.1005ZM32.9897 18.1308C32.8266 18.1278 32.6636 18.1247 32.5009 18.1247C30.3216 18.1259 28.1504 18.3916 26.035 18.9158C25.575 17.6423 25.0187 16.4057 24.3711 15.2167C26.2554 14.0217 27.9838 12.5968 29.5162 10.975C31.3884 12.9421 32.6023 15.4429 32.9897 18.1308V18.1308ZM26.5612 8.64014C25.2953 9.94124 23.8806 11.0888 22.3464 12.0592C20.9714 10.211 19.3661 8.54598 17.5694 7.10436C20.6538 6.51846 23.8461 7.06364 26.5612 8.63998V8.64014ZM13.3644 8.6828C15.5031 10.076 17.3983 11.8113 18.9741 13.8194C16.1333 15.0132 13.0824 15.627 10.0009 15.6247C9.22125 15.6247 8.44156 15.5845 7.6675 15.507C8.72005 12.6419 10.7333 10.2302 13.3644 8.6828V8.6828ZM6.875 20C6.875 19.73 6.88594 19.4625 6.90187 19.1965C7.93066 19.3148 8.96537 19.3743 10.0009 19.3747C13.8179 19.3781 17.5918 18.5676 21.0708 16.9973C21.61 17.9851 22.0759 19.0112 22.4645 20.0673C21.3069 20.5315 20.1833 21.0764 19.102 21.6981C15.8046 23.6025 12.9464 26.1816 10.7145 29.2669C9.49644 28.0507 8.53029 26.6062 7.87143 25.016C7.21257 23.4258 6.87396 21.7213 6.875 20V20ZM13.7137 31.5183C15.6408 28.8382 18.1156 26.5984 20.9741 24.9475C21.7821 24.483 22.6178 24.0683 23.4766 23.7059C23.7536 25.1464 23.8935 26.61 23.8942 28.0769C23.8938 29.6178 23.7404 31.1548 23.4364 32.6655C20.1691 33.5547 16.6844 33.1435 13.7137 31.5183V31.5183ZM27.5097 30.7548C27.5986 29.8649 27.6434 28.9712 27.6441 28.0769C27.6431 26.2106 27.4483 24.3494 27.0628 22.5234C28.8436 22.0932 30.669 21.8755 32.5009 21.8747C32.6631 21.8747 32.8256 21.8773 32.9883 21.8808C32.7292 23.6556 32.1095 25.3585 31.1673 26.8847C30.2251 28.4109 28.9803 29.728 27.5097 30.7548V30.7548Z" fill="black"/>
</svg>
