<svg width="32" height="40" viewBox="0 0 32 40" fill="none" xmlns="http://www.w3.org/2000/svg">
<path d="M18.34 4L28 13.66V36H4V4H18.34ZM20 0H4C1.8 0 0 1.8 0 4V36C0 38.2 1.8 40 4 40H28C30.2 40 32 38.2 32 36V12L20 0ZM16 24C18.2 24 20 22.2 20 20C20 17.8 18.2 16 16 16C13.8 16 12 17.8 12 20C12 22.2 13.8 24 16 24ZM24 30.86C24 29.24 23.04 27.8 21.56 27.16C19.8063 26.3946 17.9135 25.9996 16 25.9996C14.0865 25.9996 12.1937 26.3946 10.44 27.16C9.71542 27.4697 9.09785 27.9855 8.66404 28.6434C8.23022 29.3012 7.99931 30.072 8 30.86V32H24V30.86Z" fill="black"/>
</svg>
